<?xml version="1.0" encoding="iso-8859-1"?>
<!-- Generator: Adobe Illustrator 24.3.0, SVG Export Plug-In . SVG Version: 6.00 Build 0)  -->
<svg version="1.1" id="Layer_1" xmlns="http://www.w3.org/2000/svg" xmlns:xlink="http://www.w3.org/1999/xlink" x="0px" y="0px"
	 viewBox="0 0 500 500" style="enable-background:new 0 0 500 500;" xml:space="preserve">
<g>
	<path style="fill:#1793D1;" d="M249.958,25c-20.033,49.106-32.116,81.227-54.42,128.874c13.675,14.493,30.461,31.371,57.721,50.432
		c-29.307-12.057-49.298-24.163-64.237-36.724C160.476,227.134,115.755,311.963,25,475c71.33-41.172,126.624-66.556,178.155-76.241
		c-2.213-9.515-3.471-19.808-3.385-30.547l0.085-2.285c1.132-45.691,24.905-80.827,53.066-78.441s50.05,41.382,48.919,87.072
		c-0.213,8.598-1.183,16.868-2.878,24.539C349.933,409.066,404.635,434.385,475,475c-13.875-25.539-26.259-48.561-38.085-70.487
		c-18.629-14.436-38.059-33.224-77.694-53.563c27.243,7.077,46.748,15.243,61.952,24.37C300.929,151.489,291.192,121.747,249.958,25
		z"/>
</g>
</svg>
